# xmcd
#
# Track frame offsets: 
#        150
#        22637
#        45187
#        63562
#        81860
#        103425
#        125137
#        143030
#        160505
#        180245
#
# Disc length: 2684 seconds
#
# Revision: 2
# Processed by: cddbd v1.5.2PL0 Copyright (c) Steve Scherf et al.
# Submitted via: ExactAudioCopy v1.1
#
DISCID=760a7a0a
DTITLE=中森明菜 - Crimson
DYEAR=1986
DGENRE=JPop
TTITLE0=Mind Game
TTITLE1=駅
TTITLE2=約束
TTITLE3=ピンク・ジャパン
TTITLE4=Oh No, Oh Yes!
TTITLE5=エキゾティカ
TTITLE6=モザイクの城
TTITLE7=Jealous Candle
TTITLE8=赤のエナメル
TTITLE9=ミック・ジャガーに微笑みを
EXTD=YEAR: 1986
EXTT0=
EXTT1=
EXTT2=
EXTT3=
EXTT4=
EXTT5=
EXTT6=
EXTT7=
EXTT8=
EXTT9=
PLAYORDER=
